<svg width="42" height="41" viewBox="0 0 42 41" fill="none" xmlns="http://www.w3.org/2000/svg">
<path d="M17.8678 20.1794L0.610203 3.44876C0.416745 3.26116 0.263286 3.03845 0.158587 2.79334C0.053888 2.54824 2.03841e-09 2.28553 0 2.02023C-2.03841e-09 1.75493 0.053888 1.49223 0.158587 1.24712C0.263286 1.00202 0.416745 0.779308 0.610203 0.591712C0.803662 0.404116 1.03333 0.255308 1.2861 0.153781C1.53886 0.052255 1.80977 -1.97665e-09 2.08337 0C2.35696 1.97665e-09 2.62787 0.052255 2.88063 0.153781C3.1334 0.255308 3.36307 0.404116 3.55653 0.591712L20.81 17.3264L38.0635 0.591712C38.4542 0.212845 38.9841 0 39.5366 0C40.0892 0 40.6191 0.212845 41.0098 0.591712C41.4005 0.97058 41.62 1.48443 41.62 2.02023C41.62 2.55603 41.4005 3.06989 41.0098 3.44876L23.7522 20.1794L41.0098 36.91C41.4005 37.2889 41.62 37.8028 41.62 38.3386C41.62 38.8744 41.4005 39.3882 41.0098 39.7671C40.6191 40.146 40.0892 40.3588 39.5366 40.3588C38.9841 40.3588 38.4542 40.146 38.0635 39.7671L20.81 23.0324L3.55653 39.7671C3.16582 40.146 2.63591 40.3588 2.08337 40.3588C1.53082 40.3588 1.00091 40.146 0.610203 39.7671C0.219496 39.3882 0 38.8744 0 38.3386C0 37.8028 0.219496 37.2889 0.610203 36.91L17.8678 20.1794Z" fill="white"/>
</svg>
