<svg data-name="Your Icons" viewBox="0 0 48 48" xmlns="http://www.w3.org/2000/svg"><path d="M8 13h6v24.84a3 3 0 0 0 1.41 2.55c.93.61 1.37 1.61 2.92 1.61 2.17 0 2.17-2 4.33-2s2.17 2 4.33 2 2.17-2 4.34-2 2.16 2 4.33 2c1.56 0 2-1 2.93-1.61A3 3 0 0 0 40 37.84V11a5 5 0 0 0-5-5H11a4.62 4.62 0 0 0-1 .1A5 5 0 0 0 6 11a2 2 0 0 0 2 2Zm27-5a3 3 0 0 1 3 3v26.84a1 1 0 0 1-.48.85 7.84 7.84 0 0 0-1.05.84c-.49.45-.54.47-.81.47s-.32 0-.81-.47a4.83 4.83 0 0 0-7 0c-.49.45-.54.47-.81.47s-.31 0-.8-.47a4.83 4.83 0 0 0-7 0c-.49.45-.54.47-.81.47s-.31 0-.8-.47a7.25 7.25 0 0 0-1.05-.84 1 1 0 0 1-.48-.85V11a7 7 0 0 0-.67-3Zm-24.78.1h.21A3.06 3.06 0 0 1 11 8a3 3 0 0 1 2.12.87 3.1 3.1 0 0 1 .82 1.53 5.8 5.8 0 0 1 .06.6H8a3 3 0 0 1 2.22-2.9Z" fill="#3c7fff" class="fill-000000"></path><path d="M29 14h6a1 1 0 0 0 0-2h-6a1 1 0 0 0 0 2ZM29 18h6a1 1 0 0 0 0-2h-6a1 1 0 0 0 0 2ZM29 22h6a1 1 0 0 0 0-2h-6a1 1 0 0 0 0 2ZM19 27h16a1 1 0 0 0 0-2H19a1 1 0 0 0 0 2ZM19 31h16a1 1 0 0 0 0-2H19a1 1 0 0 0 0 2ZM20 22h4a2 2 0 0 0 2-2v-6a2 2 0 0 0-2-2h-4a2 2 0 0 0-2 2v6a2 2 0 0 0 2 2Zm0-8h4v6h-4Z" fill="#3c7fff" class="fill-000000"></path></svg>